<svg xmlns="http://www.w3.org/2000/svg" version="1.1" xmlns:xlink="http://www.w3.org/1999/xlink" xmlns:svgjs="http://svgjs.dev/svgjs" width="1000" height="1000" viewBox="0 0 1000 1000"><rect width="1000" height="1000" fill="#ffffff"></rect><g transform="matrix(0.7,0,0,0.7,149.57575757575756,349.5449939579114)"><svg viewBox="0 0 396 171" data-background-color="#fefee2" preserveAspectRatio="xMidYMid meet" height="431" width="1000" xmlns="http://www.w3.org/2000/svg" xmlns:xlink="http://www.w3.org/1999/xlink"><g id="tight-bounds" transform="matrix(1,0,0,1,0.2400000000000091,-0.2238767281361902)"><svg viewBox="0 0 395.52 171.44775464263023" height="171.44775464263023" width="395.52"><g><svg viewBox="0 0 397.4976 172.30499341584337" height="171.44775464263023" width="395.52"><g><rect width="397.4976" height="4.928908963133292" x="0" y="88.4371039292483" fill="#000000" opacity="1" stroke-width="0" stroke="transparent" fill-opacity="1" class="rect-o-0" data-fill-palette-color="primary" rx="1%" id="o-0" data-palette-color="#7fc37e"></rect></g><g><rect width="397.4976" height="4.928908963133292" x="0" y="99.81746441480736" fill="#000000" opacity="1" stroke-width="0" stroke="transparent" fill-opacity="1" class="rect-o-1" data-fill-palette-color="primary" rx="1%" id="o-1" data-palette-color="#7fc37e"></rect></g><g transform="matrix(1,0,0,1,0.9887999999999693,117.64927642279221)"><svg viewBox="0 0 395.52000000000004 54.65571699305118" height="54.65571699305118" width="395.52000000000004"><g id="textblocktransform"><svg viewBox="0 0 395.52000000000004 54.65571699305118" height="54.65571699305118" width="395.52000000000004" id="textblock"><g><svg viewBox="0 0 395.52000000000004 54.65571699305118" height="54.65571699305118" width="395.52000000000004"><g transform="matrix(1,0,0,1,0,0)"><svg width="395.52000000000004" viewBox="1.9000000953674316 -43.349998474121094 316.57000732421875 43.75" height="54.65571699305118" data-palette-color="#7fc37e"><path d="M1.9 0L1.9-42.95 13.55-42.95Q18.25-42.95 20.38-40.65 22.5-38.35 22.5-33.15L22.5-33.15 22.5-31.25Q22.5-25.1 18.1-23.9L18.1-23.9Q20.8-23.2 21.9-20.65 23-18.1 23-13.9L23-13.9Q23-7.05 20.95-3.53 18.9 0 13.55 0L13.55 0 1.9 0ZM10.3-26.8L12.05-26.8Q13.15-26.8 13.55-27.63 13.95-28.45 13.95-29.95L13.95-29.95 13.95-34.25Q13.95-36.35 12.1-36.35L12.1-36.35 10.3-36.35 10.3-26.8ZM11.15-7.55Q14.5-7.55 14.5-10.75L14.5-10.75 14.5-16.1Q14.5-18.05 13.93-19.05 13.35-20.05 11.9-20.05L11.9-20.05 10.3-20.05 10.3-7.6 11.15-7.55ZM36.1 0.4Q30.9 0.4 28.2-2.78 25.5-5.95 25.5-11.7L25.5-11.7 25.5-32.15Q25.5-37.7 28.2-40.53 30.9-43.35 36.1-43.35L36.1-43.35Q41.3-43.35 44-40.53 46.7-37.7 46.7-32.15L46.7-32.15 46.7-11.7Q46.7-5.9 44-2.75 41.3 0.4 36.1 0.4L36.1 0.4ZM36.1-7.5Q37.25-7.5 37.65-8.5 38.05-9.5 38.05-11.3L38.05-11.3 38.05-32.3Q38.05-33.7 37.67-34.58 37.3-35.45 36.15-35.45L36.15-35.45Q34-35.45 34-32.2L34-32.2 34-11.25Q34-9.4 34.45-8.45 34.9-7.5 36.1-7.5L36.1-7.5ZM60.1 0.4Q54.8 0.4 52.22-2.6 49.65-5.6 49.65-11.5L49.65-11.5 49.65-42.95 58-42.95 58-11.85Q58-9.8 58.4-8.65 58.8-7.5 60.1-7.5L60.1-7.5Q61.4-7.5 61.8-8.63 62.2-9.75 62.2-11.85L62.2-11.85 62.2-42.95 70.55-42.95 70.55-11.5Q70.55-5.6 67.97-2.6 65.4 0.4 60.1 0.4L60.1 0.4ZM82.24 0L73.84 0 73.84-42.95 82.69-42.95 86.64-22.4 86.64-42.95 94.94-42.95 94.94 0 86.54 0 82.24-21.5 82.24 0ZM111.04 0L102.44 0 102.44-34.7 97.34-34.7 97.34-42.95 116.14-42.95 116.14-34.7 111.04-34.7 111.04 0ZM126.44 0L118.14 0 118.14-42.95 126.44-42.95 126.44 0ZM138.54 0L129.89 0 129.89-42.95 147.09-42.95 147.09-34.6 138.54-34.6 138.54-27.75 146.64-27.75 146.64-19.5 138.54-19.5 138.54 0ZM159.78 0.4Q154.48 0.4 151.91-2.6 149.33-5.6 149.33-11.5L149.33-11.5 149.33-42.95 157.68-42.95 157.68-11.85Q157.68-9.8 158.08-8.65 158.48-7.5 159.78-7.5L159.78-7.5Q161.08-7.5 161.48-8.63 161.88-9.75 161.88-11.85L161.88-11.85 161.88-42.95 170.23-42.95 170.23-11.5Q170.23-5.6 167.66-2.6 165.08 0.4 159.78 0.4L159.78 0.4ZM190.98 0L173.53 0 173.53-42.95 182.13-42.95 182.13-7.3 190.98-7.3 190.98 0ZM213.72 0L205.07 0 205.07-42.95 222.27-42.95 222.27-34.6 213.72-34.6 213.72-27.75 221.82-27.75 221.82-19.5 213.72-19.5 213.72 0ZM235.27 0.4Q230.07 0.4 227.37-2.78 224.67-5.95 224.67-11.7L224.67-11.7 224.67-32.15Q224.67-37.7 227.37-40.53 230.07-43.35 235.27-43.35L235.27-43.35Q240.47-43.35 243.17-40.53 245.87-37.7 245.87-32.15L245.87-32.15 245.87-11.7Q245.87-5.9 243.17-2.75 240.47 0.4 235.27 0.4L235.27 0.4ZM235.27-7.5Q236.42-7.5 236.82-8.5 237.22-9.5 237.22-11.3L237.22-11.3 237.22-32.3Q237.22-33.7 236.85-34.58 236.47-35.45 235.32-35.45L235.32-35.45Q233.17-35.45 233.17-32.2L233.17-32.2 233.17-11.25Q233.17-9.4 233.62-8.45 234.07-7.5 235.27-7.5L235.27-7.5ZM259.57 0.4Q254.37 0.4 251.67-2.78 248.97-5.95 248.97-11.7L248.97-11.7 248.97-32.15Q248.97-37.7 251.67-40.53 254.37-43.35 259.57-43.35L259.57-43.35Q264.77-43.35 267.47-40.53 270.17-37.7 270.17-32.15L270.17-32.15 270.17-11.7Q270.17-5.9 267.47-2.75 264.77 0.4 259.57 0.4L259.57 0.4ZM259.57-7.5Q260.72-7.5 261.12-8.5 261.52-9.5 261.52-11.3L261.52-11.3 261.52-32.3Q261.52-33.7 261.15-34.58 260.77-35.45 259.62-35.45L259.62-35.45Q257.47-35.45 257.47-32.2L257.47-32.2 257.47-11.25Q257.47-9.4 257.92-8.45 258.37-7.5 259.57-7.5L259.57-7.5ZM273.62 0L273.62-42.95 285.47-42.95Q290.07-42.95 292.37-40.4 294.67-37.85 294.72-32.85L294.72-32.85 294.82-12.75Q294.87-6.4 292.62-3.2 290.37 0 285.17 0L285.17 0 273.62 0ZM282.27-7.6L283.77-7.6Q286.12-7.6 286.12-9.9L286.12-9.9 286.12-32.05Q286.12-33.5 285.89-34.23 285.67-34.95 285.07-35.2 284.47-35.45 283.22-35.45L283.22-35.45 282.27-35.45 282.27-7.6ZM308.47 0.4Q302.62 0.4 300.01-2.5 297.42-5.4 297.42-11.85L297.42-11.85 297.42-16.05 305.87-16.05 305.87-10.7Q305.87-7.5 307.92-7.5L307.92-7.5Q309.06-7.5 309.51-8.18 309.97-8.85 309.97-10.45L309.97-10.45Q309.97-12.55 309.47-13.93 308.97-15.3 308.19-16.23 307.42-17.15 305.42-19.1L305.42-19.1 301.72-22.8Q297.42-27 297.42-32.1L297.42-32.1Q297.42-37.6 299.94-40.48 302.47-43.35 307.31-43.35L307.31-43.35Q313.12-43.35 315.67-40.28 318.22-37.2 318.22-30.65L318.22-30.65 309.47-30.65 309.42-33.6Q309.42-34.45 308.94-34.95 308.47-35.45 307.62-35.45L307.62-35.45Q306.62-35.45 306.12-34.9 305.62-34.35 305.62-33.4L305.62-33.4Q305.62-31.3 308.01-29.05L308.01-29.05 313.01-24.25Q314.76-22.55 315.92-21.03 317.06-19.5 317.76-17.43 318.47-15.35 318.47-12.5L318.47-12.5Q318.47-6.15 316.14-2.88 313.81 0.4 308.47 0.4L308.47 0.4Z" opacity="1" transform="matrix(1,0,0,1,0,0)" fill="#000000" class="wordmark-text-0" data-fill-palette-color="primary" id="text-0"></path></svg></g></svg></g></svg></g></svg></g><g transform="matrix(1,0,0,1,169.34958572261039,0)"><svg viewBox="0 0 58.798428554779186 75.53420088439674" height="75.53420088439674" width="58.798428554779186"><g><svg xmlns="http://www.w3.org/2000/svg" xmlns:xlink="http://www.w3.org/1999/xlink" version="1.1" x="0" y="0" viewBox="17.21075439453125 7.633001327514648 65.46712493896484 84.10100555419922" enable-background="new 0 0 100 100" xml:space="preserve" height="75.53420088439674" width="58.798428554779186" class="icon-icon-0" data-fill-palette-color="accent" id="icon-0"><path fill="#000000" d="M53.977 27.282c4.021 0 5.567-1.703 7.271-3.404 1.702-1.702 8.511-7.581 4.487-9.902-4.023-2.32-7.755 2.655-7.755 2.655-0.756 1.008-1.791 0.89-2.301-0.262 0 0-3.867-8.736-8.201-8.736-4.333 0-4.176 7.891-5.879 8.819-1.702 0.928-6.449-3.529-8.509-0.154-1.529 2.503 0.915 4.669 0.915 4.669 0.942 0.835 2.431 2.259 3.307 3.165 0 0 3.049 3.151 5.369 3.151C45.002 27.282 53.977 27.282 53.977 27.282z" data-fill-palette-color="accent"></path><path fill="#000000" d="M82.567 85.117c0 0-6.003-20.238-8.014-33.699C72.543 37.958 58.927 31.15 54.283 31.15s-3.162 0-8.687 0c-5.524 0-18.259 6.807-20.271 20.268-2.01 13.461-8.013 33.699-8.013 33.699-0.358 1.207 0.264 2.669 1.383 3.247 0 0 6.064 3.128 29.71 3.356v-6.944c0-0.642-0.383-1.524-0.853-1.962l-2.562-2.39c-0.469-0.438-0.853-1.32-0.853-1.962v-1.777c0-0.641 0.397-0.822 0.883-0.404l4.034 3.484c0.485 0.42 1.28 0.42 1.766 0.001l4.04-3.485c0.485-0.419 0.883-0.236 0.883 0.404v1.777c0 0.642-0.384 1.524-0.853 1.962l-2.562 2.39c-0.47 0.438-0.854 1.32-0.854 1.962v6.958c25.666-0.025 29.889-3.078 29.889-3.078C82.384 87.918 82.926 86.325 82.567 85.117zM42.453 48.45c0.062-0.542 0.453-0.698 0.87-0.347l4.542 3.826c0.417 0.352 0.759 1.086 0.759 1.631v3.633c0 0.546-0.335 0.697-0.744 0.336 0 0-3.991-3.523-4.918-4.451C42.036 52.152 42.453 48.45 42.453 48.45zM48.553 74.913c0 0.546-0.334 0.696-0.742 0.333 0 0-4.261-3.785-4.921-4.445-0.658-0.658-0.449-4.625-0.449-4.625 0.029-0.545 0.394-0.703 0.811-0.352l4.542 3.826c0.417 0.352 0.759 1.086 0.759 1.632V74.913zM48.646 66.14c0 0.546-0.335 0.696-0.744 0.336 0 0-4.004-3.533-4.919-4.447-0.913-0.914-0.505-4.628-0.505-4.628 0.06-0.543 0.45-0.699 0.867-0.348l4.542 3.826c0.417 0.352 0.759 1.085 0.759 1.631V66.14zM50.71 48.372c-0.424 0.343-1.119 0.343-1.543 0l-2.051-1.66c-0.424-0.343-0.564-1.019-0.31-1.502l2.67-5.074c0.254-0.483 0.67-0.483 0.924 0l2.672 5.074c0.255 0.483 0.115 1.159-0.31 1.502L50.71 48.372zM56.842 70.801c-1.053 0.949-4.926 4.44-4.926 4.44-0.406 0.365-0.737 0.218-0.737-0.328v-3.631c0-0.546 0.341-1.28 0.759-1.632l4.541-3.826c0.418-0.352 0.82-0.196 0.896 0.344C57.375 66.168 57.894 69.853 56.842 70.801zM51.271 66.14v-3.63c0-0.546 0.342-1.279 0.758-1.631l4.542-3.826c0.417-0.352 0.799-0.194 0.847 0.35 0 0 0.34 3.801-0.484 4.626s-4.919 4.446-4.919 4.446C51.605 66.836 51.271 66.686 51.271 66.14zM56.913 53.078c-0.94 0.848-4.927 4.443-4.927 4.443-0.404 0.365-0.736 0.218-0.736-0.328v-3.633c0-0.545 0.342-1.279 0.759-1.631l4.541-3.826c0.417-0.352 0.81-0.195 0.872 0.347C57.422 48.45 57.854 52.23 56.913 53.078z" data-fill-palette-color="accent"></path></svg></g></svg></g><g></g></svg></g><defs></defs></svg><rect width="395.52" height="171.44775464263023" fill="none" stroke="none" visibility="hidden"></rect></g></svg></g></svg>